<?xml version="1.0" standalone="no"?>
<!DOCTYPE svg PUBLIC "-//W3C//DTD SVG 20010904//EN"
 "http://www.w3.org/TR/2001/REC-SVG-20010904/DTD/svg10.dtd">
<svg version="1.0" xmlns="http://www.w3.org/2000/svg"
 width="1280.000000pt" height="1280.000000pt" viewBox="0 0 1280.000000 1280.000000"
 preserveAspectRatio="xMidYMid meet">

<g transform="translate(0.000000,1280.000000) scale(0.100000,-0.100000)"
fill="#000000" stroke="none">
<path d="M0 6400 l0 -6400 6400 0 6400 0 0 6400 0 6400 -6400 0 -6400 0 0
-6400z m6676 4945 c320 -36 599 -102 852 -204 127 -51 192 -83 452 -226 113
-62 331 -180 485 -262 714 -381 1067 -622 1396 -952 483 -485 679 -983 679
-1726 0 -208 -10 -355 -60 -920 -23 -254 -35 -433 -55 -840 -59 -1159 -117
-1616 -271 -2130 -87 -287 -165 -466 -328 -755 -114 -201 -131 -232 -206 -375
-206 -394 -504 -873 -653 -1052 -219 -262 -444 -396 -756 -452 -142 -26 -465
-28 -791 -6 -252 17 -658 42 -815 50 -484 24 -1345 79 -1575 100 -555 50 -966
170 -1275 373 -371 243 -682 613 -937 1117 -340 673 -528 1422 -589 2350 -16
249 -14 857 5 1170 14 228 25 357 66 739 24 219 84 578 151 906 136 661 356
1364 525 1677 260 483 684 839 1274 1068 237 92 423 146 775 224 142 31 504
87 685 106 337 36 750 44 966 20z"/>
<path d="M5631 7636 c-31 -11 -38 -21 -68 -102 -19 -49 -48 -125 -64 -169 -17
-44 -43 -114 -59 -155 -78 -205 -91 -237 -108 -260 -10 -14 -31 -31 -45 -38
-18 -9 -27 -21 -27 -38 l0 -24 150 0 150 0 0 25 c0 24 -3 25 -54 25 -92 0
-102 26 -58 150 l27 75 45 7 c25 3 83 7 130 7 l86 1 27 -83 c30 -91 34 -132
15 -144 -7 -4 -31 -10 -53 -13 -34 -4 -40 -9 -43 -30 l-3 -25 153 4 c148 3
167 7 168 36 0 6 -19 17 -42 25 -37 13 -47 23 -69 70 -22 46 -99 294 -186 599
-10 36 -23 66 -28 67 -6 1 -25 -3 -44 -10z m43 -282 c26 -86 46 -158 44 -159
-8 -8 -195 -15 -205 -7 -10 6 -7 26 15 88 16 43 41 114 56 157 16 42 31 77 35
77 4 0 29 -70 55 -156z"/>
<path d="M4210 7609 c0 -25 4 -28 38 -31 l37 -3 3 -308 c1 -202 -1 -315 -8
-328 -6 -10 -28 -27 -48 -37 -22 -10 -38 -25 -40 -37 -3 -20 1 -20 140 -17 79
2 144 5 145 6 1 0 4 13 8 28 7 26 6 27 -33 25 -68 -2 -72 7 -72 163 l0 137 38
7 c20 3 111 6 201 6 l163 0 -4 -128 c-4 -144 -15 -175 -68 -187 -23 -5 -30
-12 -30 -31 l0 -25 143 3 142 3 3 27 c3 26 1 27 -38 25 -61 -2 -70 15 -70 137
0 56 5 193 10 306 9 191 11 206 31 223 12 9 30 17 40 17 13 0 19 7 19 25 l0
24 -132 -2 -133 -2 -3 -27 c-3 -26 -1 -28 32 -28 51 0 57 -19 54 -162 l-3
-123 -40 -7 c-22 -4 -109 -7 -192 -7 l-153 -1 1 118 c1 148 5 162 52 185 22
11 37 26 37 37 0 16 -11 18 -135 17 l-135 0 0 -28z"/>
<path d="M6307 7614 c-5 -30 -1 -34 39 -34 20 0 34 -6 38 -16 3 -9 6 -147 6
-307 0 -320 -3 -335 -57 -350 -21 -7 -33 -17 -36 -33 l-4 -24 148 0 c156 0
149 -2 153 43 1 8 -15 12 -48 13 -29 1 -52 7 -57 15 -5 8 -9 62 -9 120 l0 106
83 5 c97 6 158 32 216 89 122 123 106 298 -34 372 -36 19 -58 21 -237 23
l-196 2 -5 -24z m371 -63 c61 -31 86 -89 79 -179 -5 -71 -23 -103 -78 -141
-30 -20 -42 -22 -106 -18 -40 3 -77 8 -83 12 -11 7 -5 309 6 344 7 21 129 9
182 -18z"/>
<path d="M7208 7609 c-4 -26 -2 -28 36 -31 l41 -3 3 -313 2 -313 -24 -24 c-14
-14 -34 -25 -46 -25 -15 0 -20 -6 -20 -27 l0 -28 144 3 c139 3 144 4 150 25 9
36 8 36 -44 34 -36 -1 -53 2 -60 13 -5 8 -10 63 -10 123 l0 107 63 0 c86 0
155 22 214 69 69 56 106 126 106 205 0 92 -37 151 -120 189 -44 20 -64 22
-240 23 l-191 1 -4 -28z m368 -56 c59 -30 78 -63 82 -142 8 -142 -57 -209
-190 -198 -37 3 -73 9 -78 12 -10 6 -6 179 6 304 l6 54 68 -5 c40 -3 84 -13
106 -25z"/>
<path d="M8004 7631 c-2 -2 -4 -12 -4 -22 0 -13 12 -21 38 -29 21 -5 48 -20
59 -32 11 -13 60 -104 108 -203 l88 -180 5 -101 c5 -117 -2 -136 -56 -162 -22
-10 -38 -25 -40 -37 -3 -20 1 -20 135 -17 76 2 144 5 151 7 6 3 12 15 12 28 0
21 -5 24 -40 24 -67 0 -72 10 -68 143 3 131 -2 117 135 358 72 127 105 165
148 173 13 3 21 13 23 30 l3 26 -125 1 -126 0 0 -24 c0 -17 6 -24 19 -24 73 0
68 -39 -26 -216 -66 -123 -79 -143 -90 -129 -16 23 -120 255 -128 287 -8 32
16 58 55 58 25 0 40 15 40 41 0 8 -307 9 -316 0z"/>
<path d="M2886 5910 c-56 -22 -118 -77 -141 -126 -19 -41 -19 -107 0 -143 23
-45 96 -104 197 -157 110 -58 146 -87 164 -130 42 -101 -69 -191 -210 -170
-74 11 -96 38 -109 129 -10 68 -13 77 -32 77 -20 0 -22 -8 -31 -106 -5 -58 -6
-110 -3 -115 7 -11 89 -35 151 -44 57 -7 158 10 210 36 93 48 151 153 129 236
-14 52 -78 111 -176 164 -167 89 -215 131 -215 189 0 34 28 79 61 96 43 22
128 29 173 14 50 -16 66 -43 66 -112 0 -55 1 -58 25 -58 20 0 25 6 29 33 3 17
9 63 15 102 6 38 7 72 3 76 -16 15 -106 29 -179 29 -52 -1 -94 -7 -127 -20z"/>
<path d="M3740 5923 c-76 -3 -117 -8 -122 -16 -15 -24 -8 -37 20 -37 16 0 36
-6 46 -13 15 -11 17 -38 14 -319 -3 -281 -4 -308 -22 -326 -10 -12 -31 -24
-47 -27 -23 -5 -29 -12 -29 -32 0 -26 0 -26 61 -19 34 3 100 6 145 6 82 0 84
0 84 24 0 22 -5 25 -42 28 -63 4 -71 28 -62 182 l7 123 96 7 c53 3 140 6 194
6 l97 0 0 -127 c0 -146 -9 -173 -60 -189 -23 -8 -36 -19 -38 -33 -3 -21 -1
-21 142 -21 82 0 146 4 146 9 0 5 3 16 6 25 5 13 -2 16 -39 16 -28 0 -49 6
-57 15 -10 13 -12 79 -6 317 4 172 11 309 17 320 5 10 23 21 39 24 20 5 29 13
33 33 3 14 5 26 4 26 -1 1 -61 -1 -134 -3 -129 -4 -131 -4 -136 -28 -4 -21 -1
-24 27 -24 52 0 56 -11 56 -161 l0 -137 -102 -7 c-57 -3 -143 -5 -193 -3 l-90
3 3 130 c4 140 14 171 54 177 17 2 24 11 26 31 2 18 -1 26 -10 25 -7 -1 -65
-4 -128 -5z"/>
<path d="M5015 5916 c-105 -33 -189 -106 -243 -211 -37 -70 -37 -70 -37 -200
0 -129 0 -132 34 -198 52 -103 121 -154 237 -177 146 -29 311 48 400 186 50
78 67 150 62 264 -3 84 -8 105 -36 163 -61 123 -167 188 -305 186 -40 0 -90
-6 -112 -13z m198 -89 c54 -32 99 -91 129 -167 30 -78 30 -222 -1 -301 -42
-108 -134 -174 -241 -172 -156 3 -255 123 -267 324 -8 124 20 213 87 280 57
57 92 70 182 65 50 -2 78 -10 111 -29z"/>
<path d="M7768 5923 l-128 -4 0 -24 c0 -22 5 -25 33 -25 18 0 38 -5 45 -12 17
-17 17 -596 0 -633 -7 -16 -25 -29 -50 -37 -32 -9 -38 -16 -38 -38 0 -27 1
-27 43 -19 23 4 90 8 150 9 59 0 107 4 107 9 0 5 3 16 6 25 5 13 -2 16 -44 16
-32 0 -54 5 -62 15 -10 13 -12 78 -7 308 3 161 10 304 16 319 6 16 20 28 38
33 37 9 53 23 53 46 0 12 -6 18 -17 17 -10 -1 -75 -4 -145 -5z"/>
<path d="M8940 5922 c-68 -2 -107 -7 -112 -15 -15 -23 -8 -37 18 -37 14 0 34
-5 45 -10 18 -10 19 -24 19 -275 0 -146 -3 -265 -7 -264 -10 0 -176 240 -309
446 l-99 152 -97 0 c-99 1 -102 0 -97 -36 1 -5 20 -12 42 -18 30 -7 45 -17 53
-35 8 -18 8 -103 2 -290 -10 -331 -10 -328 -54 -346 -25 -10 -34 -21 -34 -37
0 -23 1 -23 117 -20 116 3 132 8 133 41 0 7 -13 12 -34 12 -70 0 -66 -17 -66
291 0 153 3 279 8 279 9 0 126 -168 310 -447 81 -122 149 -222 152 -222 26 -2
30 29 40 369 6 195 13 363 16 372 3 9 21 23 40 30 21 7 34 19 34 30 0 10 0 21
1 25 1 9 4 9 -121 5z"/>
<path d="M9668 5911 c-31 -10 -72 -28 -91 -40 -53 -33 -120 -110 -152 -176
-25 -51 -30 -74 -33 -159 -3 -56 1 -122 7 -152 24 -105 118 -209 218 -241 90
-29 251 -19 369 23 l41 14 0 129 c-1 104 2 134 16 155 9 14 17 30 17 36 0 7
-44 10 -132 8 l-133 -3 -3 -26 c-3 -25 -1 -26 64 -32 40 -3 70 -10 75 -18 5
-8 8 -57 7 -109 -3 -92 -4 -95 -30 -108 -88 -42 -214 -34 -286 17 -151 110
-177 425 -46 555 59 58 99 71 215 71 148 0 185 -25 182 -121 -2 -41 0 -44 23
-44 28 0 28 -1 42 105 6 45 12 87 14 95 8 36 -285 52 -384 21z"/>
<path d="M5846 5905 c-11 -29 -7 -35 23 -35 62 0 62 -1 59 -337 l-3 -305 -24
-19 c-13 -10 -31 -19 -41 -19 -11 0 -20 -10 -23 -27 -3 -16 -5 -29 -4 -29 1
-1 68 1 150 4 146 5 147 5 147 28 0 21 -5 24 -42 24 -24 0 -49 4 -56 9 -16 10
-28 150 -18 204 l7 35 87 4 c104 4 148 22 212 88 96 99 105 236 22 323 -55 58
-70 61 -288 65 -181 3 -202 2 -208 -13z m378 -72 c49 -29 78 -96 73 -166 -7
-81 -33 -127 -88 -155 -40 -20 -53 -21 -115 -15 l-69 8 -3 75 c-2 41 -1 121 3
177 6 83 10 102 23 105 34 7 145 -12 176 -29z"/>
<path d="M6746 5905 c-11 -28 -7 -35 20 -35 14 0 34 -5 45 -10 18 -10 19 -24
19 -308 0 -163 -3 -307 -6 -319 -4 -13 -21 -28 -44 -37 -23 -9 -40 -23 -43
-37 -4 -13 -5 -24 -4 -25 1 0 68 1 149 4 144 4 146 5 151 28 4 23 1 24 -43 24
-26 0 -52 6 -58 13 -16 19 -23 96 -16 170 l7 67 77 0 c66 0 86 4 138 31 101
50 162 141 162 239 0 87 -35 145 -115 188 -24 14 -68 17 -231 20 -181 3 -202
2 -208 -13z m364 -63 c59 -23 96 -100 88 -181 -11 -115 -82 -177 -188 -165
-101 11 -93 -7 -85 183 5 120 10 169 20 177 15 11 124 3 165 -14z"/>
<path d="M7776 3396 c-17 -19 -40 -54 -52 -78 -54 -111 -74 -154 -74 -162 0
-5 -6 -17 -13 -25 -8 -9 -26 -47 -41 -85 -15 -38 -34 -79 -42 -90 -17 -25 -18
-56 -1 -56 7 0 20 13 30 29 25 42 120 141 136 141 9 0 11 -7 6 -22 -19 -61
-22 -110 -8 -124 21 -21 63 -17 112 11 24 14 47 22 50 17 21 -33 94 -15 132
32 l17 21 11 -27 c13 -34 45 -51 83 -46 24 4 28 2 24 -11 -3 -9 -19 -56 -36
-104 -29 -82 -34 -137 -12 -137 5 0 16 22 26 49 10 28 24 55 31 61 8 6 17 26
21 43 3 17 11 38 16 47 5 8 17 40 27 70 11 30 24 56 30 58 5 2 17 -11 26 -28
27 -52 75 -59 121 -18 17 15 124 51 131 44 1 -1 -4 -15 -12 -30 -61 -118 -68
-132 -84 -192 -14 -51 -14 -91 -1 -99 6 -3 10 0 10 8 0 8 7 20 15 27 8 7 15
23 15 36 0 13 6 27 14 31 7 4 24 37 36 73 13 36 31 85 42 109 l18 44 40 -43
c34 -37 43 -41 67 -35 15 3 39 17 54 31 14 13 35 24 46 24 12 0 32 4 46 9 19
7 26 5 36 -11 11 -17 19 -19 64 -13 29 4 58 12 64 17 7 6 20 8 28 4 24 -9 -10
-69 -53 -92 -55 -29 -129 -106 -152 -156 -29 -67 -44 -146 -31 -162 26 -31 78
3 123 79 42 72 41 72 89 168 42 84 46 88 87 100 51 13 57 32 7 23 -19 -4 -35
-3 -35 2 0 11 44 121 63 156 9 16 14 33 11 37 -9 15 -29 -2 -59 -49 -22 -34
-45 -55 -84 -74 -58 -30 -77 -33 -100 -19 -12 8 -10 18 9 65 12 31 19 60 15
64 -10 11 -55 -46 -62 -79 -4 -19 -14 -31 -34 -38 -46 -16 -59 -5 -59 49 0 73
-52 104 -108 64 -18 -12 -26 -13 -37 -4 -19 16 -31 6 -45 -35 -13 -38 -58 -72
-105 -77 -29 -3 -30 -1 -35 44 -8 79 -49 106 -112 74 -18 -10 -29 -11 -37 -3
-11 11 -41 -7 -41 -26 0 -5 -14 -38 -32 -73 -35 -69 -64 -88 -108 -72 -37 14
-41 27 -34 100 6 71 -8 138 -30 138 -16 0 -76 -44 -99 -73 -10 -12 -32 -51
-49 -86 -33 -68 -73 -101 -120 -101 -33 0 -35 11 -13 93 8 32 15 62 15 67 0
18 -37 10 -74 -15 -32 -22 -37 -23 -43 -8 -7 18 21 43 47 43 9 0 38 14 65 32
61 40 95 111 95 196 0 89 -30 106 -84 48z m64 -23 c0 -49 -27 -143 -46 -164
-17 -19 -84 -59 -99 -59 -17 0 64 175 102 220 31 37 43 38 43 3z m194 -230
c-4 -10 -9 -39 -12 -65 -4 -52 -26 -81 -79 -103 -29 -12 -31 -11 -42 11 -6 15
-7 24 -1 24 6 0 10 6 10 13 0 8 9 25 20 38 11 13 34 41 51 62 32 39 68 52 53
20z m364 -40 c13 -25 3 -82 -17 -92 -23 -13 -63 -3 -97 24 -25 20 -27 25 -14
40 33 39 113 57 128 28z m336 0 c9 -32 1 -84 -14 -93 -8 -6 -28 -7 -45 -4 -30
7 -85 42 -85 55 0 4 19 19 43 33 50 30 93 34 101 9z m-383 -123 c11 0 17 -4
14 -10 -9 -15 -28 -12 -51 6 -17 14 -17 15 -1 10 10 -3 28 -6 38 -6z m349 -11
c0 -14 -36 -11 -49 4 -8 11 -5 13 19 9 17 -2 30 -8 30 -13z m268 -136 c-14
-21 -40 -65 -58 -98 -18 -33 -35 -62 -39 -65 -3 -3 -11 -14 -17 -25 -6 -11
-19 -21 -28 -23 -20 -4 -15 25 16 100 19 45 133 166 145 154 3 -3 -5 -23 -19
-43z"/>
<path d="M6536 3395 c-8 -9 -36 -59 -62 -113 -42 -89 -58 -121 -88 -177 -6
-11 -12 -21 -13 -23 0 -2 -20 6 -44 17 -43 21 -48 21 -85 -15 -26 -24 10 -104
48 -104 10 0 18 -7 18 -16 0 -16 -45 -103 -119 -230 -22 -39 -41 -78 -41 -87
0 -9 -5 -19 -11 -23 -13 -7 -5 -60 12 -81 6 -7 21 -13 33 -13 26 0 100 45 140
85 64 64 98 215 75 332 -11 57 -5 93 15 93 27 0 117 99 148 162 48 98 49 208
2 208 -7 0 -19 -7 -28 -15z m34 -52 c-1 -50 -60 -180 -104 -227 -35 -37 -49
-31 -27 12 5 9 32 65 60 125 47 100 71 131 71 90z m-232 -294 c3 -14 -34 -39
-58 -39 -12 0 -13 43 -3 54 13 12 58 2 61 -15z m32 -183 c0 -73 -12 -119 -58
-214 -21 -45 -115 -93 -137 -71 -13 12 -10 23 17 79 18 36 35 67 40 68 4 2 8
8 8 13 0 20 112 199 121 194 5 -4 9 -34 9 -69z"/>
<path d="M4513 3388 c-13 -6 -23 -17 -23 -24 0 -7 -6 -17 -12 -21 -25 -16 -76
-140 -93 -224 -25 -127 -32 -146 -63 -157 -56 -19 -107 26 -91 81 17 61 1 157
-27 157 -28 0 -115 -85 -128 -126 -4 -12 -14 -28 -24 -37 -33 -29 -111 -67
-126 -61 -20 8 -20 50 -1 84 19 34 19 70 0 70 -24 0 -85 -28 -85 -39 0 -12
-69 -53 -80 -46 -5 3 -6 21 -3 41 4 25 2 39 -8 45 -28 17 -67 9 -100 -22 -17
-16 -40 -34 -51 -40 -15 -8 -18 -6 -18 16 0 28 -16 65 -28 65 -4 0 -8 -26 -9
-58 -1 -31 -9 -74 -17 -94 -34 -80 -11 -92 34 -19 17 27 51 65 75 86 47 38
102 52 98 25 -4 -29 -21 -95 -28 -112 -12 -30 13 -21 53 18 38 37 120 90 127
82 2 -2 1 -27 -4 -55 -9 -56 3 -83 36 -83 23 0 78 23 110 46 20 14 21 14 16
-4 -3 -14 3 -25 21 -37 32 -21 75 -9 110 31 l23 28 17 -32 c18 -35 50 -48 95
-39 15 3 32 2 38 -4 6 -6 22 11 44 46 18 30 37 55 41 55 4 0 10 -16 14 -35 3
-20 15 -40 25 -45 29 -16 104 -4 153 25 l45 26 16 -30 c14 -28 20 -31 65 -31
27 0 52 5 56 11 4 6 46 29 93 51 82 38 131 72 131 90 0 5 -17 -3 -37 -17 -21
-14 -44 -25 -53 -26 -8 0 -28 -9 -45 -20 -33 -21 -34 -21 -86 -38 -43 -14 -99
-14 -99 -1 0 5 14 16 30 25 17 9 30 20 30 25 0 6 3 9 8 8 14 -5 63 35 78 63
19 37 18 78 -2 86 -18 7 -107 -32 -129 -57 -9 -10 -26 -37 -38 -61 -12 -23
-39 -56 -59 -72 -31 -25 -47 -30 -95 -31 -56 -1 -58 0 -61 27 -3 23 0 27 24
27 61 0 134 73 124 124 -7 43 -46 51 -99 20 l-41 -23 19 37 c64 120 80 174 61
197 -14 17 -17 17 -47 3z m-18 -149 c-88 -181 -98 -195 -85 -131 18 87 86 240
110 245 27 5 22 -17 -25 -114z m89 -84 c9 -23 -15 -65 -45 -81 -32 -16 -79
-19 -79 -4 0 15 62 81 84 90 30 12 33 12 40 -5z m-379 -17 c-4 -13 -10 -41
-14 -63 -8 -53 -28 -79 -74 -98 -36 -16 -37 -15 -43 8 -6 23 18 72 43 88 7 4
13 13 13 19 0 17 51 68 68 68 10 0 12 -6 7 -22z m625 4 c0 -25 -75 -92 -103
-92 -15 0 11 46 41 76 39 38 62 44 62 16z"/>
<path d="M7300 3345 c-51 -83 -96 -170 -124 -237 -10 -27 -26 -42 -57 -57 -24
-12 -48 -21 -55 -21 -7 0 -17 -6 -21 -14 -8 -13 -42 -23 -120 -33 -51 -6 -59
12 -14 28 16 6 32 17 35 25 3 9 10 12 16 9 5 -3 10 -2 10 3 0 5 10 14 23 21
28 15 60 72 55 96 -6 33 -31 39 -78 17 -55 -25 -88 -55 -96 -87 -4 -15 -21
-31 -50 -44 -24 -12 -48 -21 -53 -21 -5 0 -14 -7 -21 -15 -7 -9 -15 -13 -18
-11 -2 3 -20 -1 -39 -9 -39 -16 -103 -20 -103 -6 0 4 27 25 61 46 85 52 129
132 88 158 -12 7 -31 3 -72 -16 -60 -27 -88 -61 -109 -130 -10 -33 -9 -44 7
-73 17 -32 21 -34 71 -34 35 0 56 5 61 14 4 8 37 28 72 44 l64 30 21 -42 c20
-39 24 -41 70 -44 33 -2 54 2 65 12 9 8 51 31 93 50 l76 34 6 -38 c8 -50 33
-64 97 -57 62 8 179 76 179 105 0 5 7 15 15 22 8 7 15 17 15 22 0 5 -21 -9
-47 -31 -25 -23 -74 -55 -108 -72 -51 -25 -66 -28 -88 -20 -15 6 -27 16 -27
22 0 6 24 39 53 72 48 55 77 106 116 200 6 15 11 48 11 72 0 43 -1 45 -29 45
-23 0 -34 -8 -51 -35z m50 -40 c0 -46 -123 -255 -150 -255 -16 0 49 144 112
248 19 31 38 35 38 7z m-630 -150 c0 -29 -54 -82 -104 -101 -17 -6 -16 -3 5
33 23 40 61 72 87 73 6 0 12 -2 12 -5z m290 -6 c0 -21 -20 -46 -60 -74 -22
-15 -43 -26 -46 -23 -8 8 30 77 42 78 6 0 17 7 24 15 14 17 40 20 40 4z"/>
<path d="M5575 3158 c-53 -31 -101 -102 -111 -166 -6 -36 -3 -42 19 -57 25
-16 28 -16 68 7 24 13 51 40 66 65 20 35 30 43 53 43 16 0 35 3 44 6 13 5 16
-1 16 -29 0 -45 18 -85 41 -92 21 -7 86 24 113 54 25 27 32 27 48 -6 19 -41
60 -52 106 -28 39 20 82 54 82 65 0 4 -23 -4 -50 -17 -64 -30 -104 -28 -108 7
-2 14 -8 30 -13 37 -7 7 -4 16 9 25 21 15 40 78 23 78 -5 0 -22 -21 -38 -47
-15 -27 -32 -51 -39 -55 -7 -4 -31 -24 -54 -43 -23 -19 -53 -35 -65 -35 -20 0
-23 4 -20 28 2 15 14 50 26 78 13 30 19 59 15 69 -5 15 -11 12 -36 -22 -22
-30 -38 -42 -63 -45 -49 -5 -67 1 -67 25 -1 62 -22 80 -65 55z m45 -36 c0 -9
-5 -24 -10 -32 -9 -13 -12 -12 -25 4 -13 17 -13 22 1 38 19 20 34 15 34 -10z
m-39 -58 c17 -8 29 -18 27 -22 -32 -65 -44 -82 -59 -82 -10 0 -24 -3 -33 -6
-13 -5 -16 1 -16 28 0 19 5 39 12 46 7 7 8 12 3 12 -4 0 0 9 10 20 22 24 19
24 56 4z"/>
<path d="M5376 3123 c-56 -89 -157 -145 -204 -114 -10 6 -8 20 14 65 32 67 24
84 -17 38 -31 -35 -39 -85 -18 -124 10 -18 17 -20 60 -14 28 4 61 12 74 18 33
15 39 6 24 -35 -8 -22 -24 -41 -48 -53 -107 -57 -178 -160 -183 -264 -3 -52
-2 -55 22 -58 16 -2 34 6 48 20 31 31 91 124 98 154 3 13 12 28 20 35 8 6 14
16 14 22 0 5 10 31 23 57 22 46 56 70 100 70 9 0 17 5 17 11 0 7 -14 8 -40 4
l-40 -7 26 69 c14 37 32 78 40 90 16 26 18 53 4 53 -5 0 -21 -17 -34 -37z
m-129 -301 c-13 -21 -36 -60 -51 -87 -45 -85 -67 -114 -90 -115 -11 0 2 67 21
105 22 43 82 115 96 115 7 0 19 10 26 23 10 15 16 18 19 9 2 -7 -7 -30 -21
-50z"/>
</g>
</svg>
