<?xml version="1.0" standalone="no"?>
<!DOCTYPE svg PUBLIC "-//W3C//DTD SVG 20010904//EN"
 "http://www.w3.org/TR/2001/REC-SVG-20010904/DTD/svg10.dtd">
<svg version="1.0" xmlns="http://www.w3.org/2000/svg"
 width="500.000000pt" height="500.000000pt" viewBox="0 0 500.000000 500.000000"
 preserveAspectRatio="xMidYMid meet">

<g transform="translate(0.000000,500.000000) scale(0.100000,-0.100000)"
fill="#000000" stroke="none">
<path d="M2271 4045 c-549 -86 -1022 -462 -1220 -970 -286 -732 4 -1552 684
-1933 752 -423 1696 -159 2124 593 127 223 201 506 201 767 -1 772 -571 1427
-1339 1543 -120 18 -333 18 -450 0z m122 -112 c-30 -6 -29 -27 2 -41 31 -15
33 -48 3 -56 -32 -8 -38 -7 -38 4 0 6 11 10 25 10 16 0 25 6 25 15 0 8 -6 15
-14 15 -8 0 -22 7 -31 16 -20 20 -3 45 29 43 20 -2 20 -2 -1 -6z m117 -33 c22
0 30 5 33 23 2 12 4 -3 4 -33 0 -30 -2 -43 -4 -27 -4 22 -9 27 -33 27 -24 0
-29 -5 -33 -27 -2 -16 -4 -3 -4 27 0 30 2 45 4 33 3 -18 11 -23 33 -23z m138
33 c-36 -5 -40 -42 -5 -44 21 -1 21 -1 -3 -8 -14 -4 -25 -13 -25 -21 0 -8 11
-17 25 -21 23 -6 22 -7 -7 -8 -36 -1 -38 4 -27 72 6 34 9 37 38 36 30 -2 30
-2 4 -6z m-339 -56 c5 -27 5 -47 0 -47 -5 0 -9 8 -9 19 0 10 -3 34 -6 52 -4
19 -4 31 0 28 3 -3 10 -27 15 -52z m449 42 c38 -13 49 -42 28 -74 -15 -23 -63
-35 -78 -20 -4 5 11 105 17 105 1 0 16 -5 33 -11z m-543 -72 c5 -23 9 -27 33
-22 22 4 24 4 7 -4 -42 -20 -47 -15 -59 59 -5 26 -4 30 3 15 5 -11 12 -32 16
-48z m-80 18 c0 -11 6 -24 13 -28 20 -13 14 -37 -14 -47 -39 -15 -41 -14 -53
37 -10 37 -9 48 1 55 22 14 53 5 53 -17z m816 5 c28 -15 23 -38 -11 -58 -35
-20 -37 -28 -9 -37 11 -4 18 -9 16 -11 -3 -3 -20 1 -38 9 l-34 14 25 13 c14 7
33 20 43 28 17 15 17 17 -5 34 -25 19 -18 24 13 8z m-926 -67 c21 -27 30 -40
19 -31 -21 19 -54 8 -54 -17 0 -8 -4 -15 -9 -15 -8 0 -9 94 -2 108 3 5 9 -1
46 -45z m1043 -1 c4 -27 -22 -72 -42 -72 -7 0 -19 7 -26 15 -20 25 12 87 43
83 14 -2 23 -11 25 -26z m-1167 -1 c-12 -8 -11 -15 3 -51 22 -55 15 -62 -9 -9
-14 30 -23 39 -37 36 -28 -8 -21 8 10 20 34 14 52 16 33 4z m1267 -49 c-2 -9
-18 -25 -36 -34 -33 -16 -33 -17 -12 -28 12 -6 19 -14 16 -17 -8 -8 -58 26
-52 36 3 5 19 11 36 15 38 7 49 32 24 52 -18 14 -18 14 4 4 13 -7 22 -18 20
-28z m-1383 -15 c-23 -18 -11 -39 19 -31 14 3 27 -1 36 -11 11 -13 10 -19 -5
-35 -10 -11 -23 -20 -29 -20 -6 0 0 9 13 19 19 14 21 20 10 27 -8 5 -24 7 -37
5 -13 -1 -25 4 -28 13 -9 23 3 46 23 46 15 0 15 -1 -2 -13z m1454 -54 c-27
-46 -39 -60 -39 -47 0 5 9 22 20 39 14 22 16 31 7 37 -8 5 -3 8 11 8 l24 0
-23 -37z m-1544 -3 c-14 -16 -16 -23 -7 -32 9 -9 15 -9 24 0 7 7 17 12 23 12
5 0 2 -5 -7 -11 -20 -11 -24 -34 -8 -44 6 -4 18 -1 26 6 8 6 16 10 18 8 2 -2
-7 -12 -19 -22 -24 -17 -24 -17 -54 27 l-31 44 23 15 c30 22 33 21 12 -3z m72
-817 c-4 -32 -9 -73 -13 -90 l-6 -33 80 0 c45 0 83 4 86 9 4 5 9 43 13 85 5
63 9 77 25 82 11 3 24 2 29 -3 4 -4 0 -61 -11 -128 -11 -66 -20 -144 -20 -172
0 -50 -1 -53 -26 -53 l-27 0 5 75 5 75 -82 0 -83 0 -7 -55 c-3 -30 -4 -64 0
-75 5 -16 2 -20 -19 -20 -15 0 -27 7 -31 19 -3 11 4 83 15 161 11 77 18 146
14 152 -8 12 14 28 40 28 17 0 18 -6 13 -57z m503 -40 c0 -92 11 -189 26 -240
5 -20 3 -23 -20 -23 -28 0 -46 29 -46 76 0 23 -2 24 -70 24 -76 0 -72 4 -74
-70 -1 -18 -7 -26 -22 -28 -59 -8 -25 115 74 268 20 30 35 63 34 73 -1 14 8
17 49 17 l49 0 0 -97z m204 88 c3 -4 24 -3 46 2 73 20 130 -29 130 -111 0 -84
-67 -138 -157 -129 l-53 6 -2 -32 c-1 -18 -1 -44 0 -59 2 -23 -2 -28 -22 -28
-32 0 -35 17 -19 130 7 52 15 122 19 155 4 33 12 63 18 67 15 10 34 10 40 -1z
m320 0 c3 -4 23 -4 45 2 29 8 46 7 71 -3 48 -20 63 -50 58 -116 -4 -46 -10
-61 -37 -87 -29 -30 -36 -32 -101 -32 l-70 0 0 -58 c0 -55 -1 -58 -22 -55 -31
4 -34 37 -12 177 9 64 17 127 17 141 -1 33 36 56 51 31z m300 -7 c9 -8 16 -16
17 -17 1 -1 4 -59 8 -128 7 -130 23 -179 56 -179 41 0 96 140 99 255 2 64 6
81 19 83 29 6 38 -31 27 -107 -26 -184 -138 -331 -271 -355 -42 -7 -87 6 -95
29 -10 24 1 28 40 14 41 -15 97 -2 140 32 l27 21 -33 17 c-40 20 -56 61 -58
151 -1 63 -11 131 -25 178 -6 18 -4 22 13 22 11 0 28 -7 36 -16z m-1948 -392
c16 -10 34 -48 34 -70 0 -31 -43 -64 -80 -60 -63 6 -89 78 -44 122 16 16 71
21 90 8z m2798 -8 c48 -47 18 -119 -49 -119 -29 0 -42 6 -58 27 -35 47 -3 108
58 108 18 0 41 -7 49 -16z m-2456 -177 c13 -13 14 -21 6 -35 -22 -35 -82 -22
-96 20 -4 10 -16 8 -54 -7 -42 -18 -49 -25 -52 -51 -3 -30 0 -33 64 -60 95
-40 114 -57 114 -104 0 -30 -6 -43 -31 -64 -39 -33 -66 -40 -135 -34 -65 6
-100 32 -89 67 6 21 7 21 41 -9 59 -51 159 -35 159 25 0 27 -7 33 -77 67 -108
52 -131 96 -81 157 40 49 191 67 231 28z m164 11 c3 -7 1 -33 -3 -58 -5 -25
-11 -60 -14 -77 l-6 -33 84 0 83 0 11 71 c7 39 9 77 7 84 -7 16 34 31 48 17 6
-6 3 -54 -11 -139 -12 -71 -21 -148 -21 -172 0 -38 -2 -42 -22 -39 -22 3 -23
7 -21 76 l2 72 -79 0 c-43 0 -82 -5 -85 -10 -3 -6 -7 -39 -8 -75 -2 -60 -4
-65 -24 -65 -21 0 -23 5 -23 53 0 28 7 93 15 142 8 50 15 104 15 122 0 29 9
40 37 42 6 1 13 -5 15 -11z m482 6 c31 -12 18 -34 -20 -34 -95 0 -163 -111
-135 -218 13 -48 42 -72 88 -72 43 0 99 49 115 101 10 36 9 41 -10 59 -44 41
-36 110 13 110 32 0 45 -27 45 -93 0 -74 -41 -153 -96 -184 -81 -46 -176 -17
-202 62 -24 70 3 180 55 227 40 36 110 56 147 42z m250 -3 c3 -4 23 -4 45 2
82 22 136 -29 129 -120 -4 -45 -11 -60 -37 -86 -29 -30 -36 -32 -101 -32 l-70
0 0 -58 c0 -55 -1 -58 -22 -55 -31 4 -33 35 -12 182 9 67 17 130 16 141 -2 28
38 49 52 26z m322 0 c5 -6 24 -6 49 1 75 19 131 -27 129 -107 -2 -88 -63 -139
-157 -133 l-52 3 -3 -57 c-3 -50 -6 -58 -23 -58 -31 0 -33 24 -14 159 11 69
19 140 19 156 1 40 28 59 52 36z m326 -2 c2 -7 -4 -62 -14 -123 -10 -61 -19
-137 -20 -168 -2 -53 -4 -58 -25 -58 -21 0 -23 4 -23 53 0 28 7 93 15 142 8
50 15 104 15 122 0 29 9 40 37 42 6 1 13 -4 15 -10z m201 -21 c11 -15 39 -83
63 -150 33 -96 43 -118 48 -98 14 61 35 240 30 254 -4 10 2 17 21 22 14 3 29
4 32 0 3 -3 -4 -75 -16 -160 -13 -84 -20 -163 -16 -175 5 -18 2 -21 -25 -21
-48 0 -73 36 -121 179 -24 72 -45 129 -46 127 -9 -8 -40 -256 -36 -279 5 -24
2 -27 -21 -27 -25 0 -26 3 -26 53 0 28 7 93 15 142 8 50 15 104 15 122 0 50
49 57 83 11z m508 22 c10 -6 19 -19 19 -29 0 -34 -61 -43 -92 -14 -18 16 -21
16 -46 1 -107 -63 -123 -278 -21 -278 41 0 73 18 92 50 20 33 22 76 5 83 -18
8 10 27 40 27 27 0 27 -10 2 -102 -11 -40 -22 -93 -24 -118 -3 -36 -7 -45 -22
-45 -16 0 -19 8 -19 41 l0 42 -55 -5 c-67 -5 -98 10 -123 57 -38 72 0 208 70
256 60 41 134 55 174 34z m-2076 -870 c19 -21 7 -28 -13 -8 -19 19 -40 -6 -22
-27 8 -9 8 -15 2 -15 -6 0 -14 5 -18 11 -5 8 -10 6 -16 -5 -5 -9 -14 -16 -19
-16 -6 0 4 18 21 40 17 22 35 40 39 40 4 0 16 -9 26 -20z m1715 3 c0 -10 7
-31 15 -47 18 -34 19 -47 2 -24 -7 9 -28 23 -47 32 -33 15 -33 16 -6 11 26 -6
28 -4 24 19 -3 15 -1 26 3 26 5 0 9 -8 9 -17z m-92 -56 c-15 -12 -15 -16 7
-43 13 -16 24 -36 25 -44 0 -8 -12 2 -26 23 -20 30 -30 37 -47 32 -19 -5 -17
-2 8 19 17 14 35 26 40 26 6 -1 2 -6 -7 -13z m-1549 -24 c0 -10 -7 -36 -14
-58 -12 -34 -14 -36 -11 -10 2 17 7 38 11 49 6 14 5 17 -6 14 -8 -3 -14 -12
-13 -20 1 -10 -10 -14 -34 -15 l-35 -1 44 28 c52 34 59 36 58 13z m102 -50
c13 -15 12 -15 -9 -4 -19 10 -23 9 -28 -4 -4 -9 -2 -21 5 -28 18 -18 13 -47
-8 -47 -28 0 -51 10 -51 23 0 7 4 7 12 -1 11 -11 48 -17 48 -7 0 2 -5 15 -11
29 -21 46 12 76 42 39z m1384 -17 c10 -18 15 -41 12 -50 -8 -21 -36 -32 -54
-20 -19 12 -57 74 -46 74 5 0 17 -16 28 -35 13 -26 24 -35 39 -33 29 4 31 32
6 68 -12 16 -17 30 -12 30 5 0 17 -15 27 -34z m-1329 -39 c-4 -19 0 -26 18
-35 20 -9 25 -7 34 11 6 12 11 16 11 9 1 -17 -39 -95 -46 -89 -2 3 1 15 7 27
10 18 9 24 -1 31 -24 15 -47 10 -54 -12 -4 -11 -9 -18 -11 -16 -5 5 37 97 44
97 2 0 2 -11 -2 -23z m1209 -39 c22 -23 32 -36 23 -29 -23 17 -58 5 -60 -22 0
-12 -4 1 -7 28 -6 44 -5 65 3 65 1 0 20 -19 41 -42z m-1100 -43 c-10 -25 -20
-43 -23 -41 -2 3 4 25 13 51 10 25 20 43 23 41 2 -3 -4 -25 -13 -51z m967 34
c-30 -11 -23 -35 9 -31 22 2 23 2 5 -11 -27 -20 -15 -52 14 -37 11 6 20 7 20
2 0 -12 -43 -24 -51 -14 -4 4 -12 24 -19 46 -13 41 -5 56 30 55 8 0 4 -4 -8
-10z m-831 -40 c14 -27 -9 -73 -39 -77 -31 -5 -52 15 -52 49 0 52 67 72 91 28z
m754 -11 c0 -9 4 -20 8 -24 15 -16 6 -45 -18 -56 -31 -14 -31 -13 -49 45 -15
50 -11 57 34 54 16 -1 25 -8 25 -19z m-664 -38 c13 -44 29 -53 29 -17 0 12 5
29 11 37 7 11 9 6 4 -20 -15 -83 -25 -90 -45 -30 -14 44 -30 53 -30 18 0 -20
-19 -64 -20 -46 0 27 23 107 31 103 4 -3 14 -24 20 -45z m491 -5 c16 -35 -2
-71 -39 -78 -15 -3 -29 -5 -29 -4 -1 1 -5 26 -9 55 l-7 52 36 0 c29 0 39 -5
48 -25z m-277 -36 c9 -28 15 -53 12 -55 -3 -3 -8 4 -12 15 -8 25 -55 30 -55 6
0 -8 -4 -15 -9 -15 -11 0 30 99 41 100 3 0 14 -23 23 -51z m125 -24 c-1 -5
-11 3 -25 19 l-24 30 -4 -40 c-3 -32 -4 -29 -5 16 l-1 55 29 -35 c17 -19 30
-39 30 -45z m16 -23 c-11 -10 -12 3 -7 53 l6 50 3 -49 c2 -26 1 -51 -2 -54z"/>
<path d="M2726 3888 c-12 -48 -8 -60 22 -56 24 3 27 7 27 38 0 28 -4 36 -21
38 -15 2 -23 -4 -28 -20z"/>
<path d="M2087 3873 c-3 -5 -2 -15 2 -21 9 -15 43 -4 38 12 -5 14 -33 20 -40
9z"/>
<path d="M2104 3834 c-12 -5 -7 -44 5 -44 17 1 33 20 28 34 -6 16 -13 18 -33
10z"/>
<path d="M1990 3806 c0 -9 5 -16 10 -16 6 0 10 4 10 9 0 6 -4 13 -10 16 -5 3
-10 -1 -10 -9z"/>
<path d="M3021 3807 c-18 -22 -18 -61 0 -64 15 -4 39 34 39 62 0 19 -24 19
-39 2z"/>
<path d="M2167 2803 c-69 -116 -69 -113 -3 -113 l56 0 0 95 c0 52 -1 95 -3 95
-2 0 -24 -35 -50 -77z"/>
<path d="M2501 2880 c-28 -6 -39 -35 -43 -119 l-3 -56 49 1 c61 1 96 34 96 92
0 65 -39 97 -99 82z"/>
<path d="M2820 2881 c-22 -6 -26 -15 -37 -81 -17 -98 -14 -104 44 -97 62 7 93
40 93 101 0 61 -42 93 -100 77z"/>
<path d="M2410 2311 c-22 -6 -26 -15 -37 -81 -17 -98 -14 -104 44 -97 62 7 93
40 93 101 0 61 -42 93 -100 77z"/>
<path d="M2730 2307 c-21 -11 -27 -23 -36 -87 -9 -56 -9 -77 0 -83 19 -14 87
0 111 23 48 45 38 130 -17 149 -17 6 -31 11 -32 11 -1 0 -12 -6 -26 -13z"/>
<path d="M3070 1251 c0 -11 4 -21 9 -21 18 0 21 18 6 30 -13 10 -15 9 -15 -9z"/>
<path d="M2072 1198 c-32 -32 0 -84 37 -61 24 15 21 67 -4 71 -11 1 -26 -3
-33 -10z"/>
<path d="M2840 1187 c0 -8 3 -17 6 -20 10 -9 46 12 39 24 -9 14 -45 11 -45 -4z"/>
<path d="M2861 1151 c-9 -6 -10 -14 -4 -25 8 -14 12 -14 27 -3 11 8 16 19 12
25 -9 14 -16 15 -35 3z"/>
<path d="M2654 1138 c3 -13 6 -31 6 -40 0 -25 37 -23 50 2 15 29 -4 60 -37 60
-21 0 -24 -3 -19 -22z"/>
<path d="M2415 1127 c-4 -10 -5 -21 -1 -24 10 -10 18 4 13 24 -4 17 -4 17 -12
0z"/>
</g>
</svg>
